<svg width="13" height="13" viewBox="0 0 13 13" fill="none" xmlns="http://www.w3.org/2000/svg">
<path d="M11.71 6.1234L10.78 5.0634L10.91 3.6584C10.935 3.4084 10.765 3.1784 10.525 3.1234L9.14501 2.8084L8.42501 1.5934C8.29501 1.3784 8.03001 1.2884 7.80001 1.3884L6.50001 1.9534L5.20501 1.3984C4.97501 1.2984 4.70501 1.3884 4.58001 1.6034L3.85501 2.8134L2.48001 3.1234C2.23501 3.1784 2.06501 3.4034 2.09001 3.6584L2.22001 5.0584L1.29001 6.1234C1.12501 6.3134 1.12501 6.5934 1.29001 6.7834L2.22001 7.8434L2.09001 9.2534C2.06501 9.5034 2.23501 9.7334 2.47501 9.7884L3.85501 10.1034L4.57501 11.3134C4.70501 11.5284 4.97001 11.6184 5.20501 11.5184L6.50001 10.9534L7.79501 11.5084C8.02501 11.6084 8.29501 11.5184 8.42001 11.3034L9.14001 10.0884L10.52 9.7734C10.765 9.7184 10.93 9.4884 10.905 9.2384L10.775 7.8334L11.705 6.7734C11.875 6.5934 11.875 6.3134 11.71 6.1234ZM7.00001 8.9534H6.00001V7.9534H7.00001V8.9534ZM6.50001 6.9534C6.22501 6.9534 6.00001 6.7284 6.00001 6.4534V4.4534C6.00001 4.1784 6.22501 3.9534 6.50001 3.9534C6.77501 3.9534 7.00001 4.1784 7.00001 4.4534V6.4534C7.00001 6.7284 6.77501 6.9534 6.50001 6.9534Z" fill="white"/>
</svg>
