<svg width="17" height="17" viewBox="0 0 17 17" fill="none" xmlns="http://www.w3.org/2000/svg">
<g clip-path="url(#clip0_4103_2497)">
<path d="M8.01146 3.96805C7.41231 3.79852 6.79735 3.68793 6.17623 3.64779C5.9329 3.63005 5.80976 3.94224 6.00233 4.09395C6.37722 4.39292 6.85235 4.80359 7.2091 5.22875C7.87117 6.01777 7.89082 7.0913 7.10179 7.75337C6.51194 8.24832 5.73043 8.29706 5.09232 7.96441C4.98974 7.91995 4.93585 7.88684 4.84216 7.82186C4.66504 7.69634 4.4126 7.82332 4.43959 8.04217C4.45742 8.20344 4.47908 8.36149 4.51101 8.52399C4.71085 9.68781 5.21531 10.818 6.03165 11.7908C7.45222 13.4838 9.97402 13.7044 11.667 12.2839C13.3599 10.8633 13.5806 8.34149 12.16 6.64853C11.0383 5.31178 9.58337 4.41789 8.01146 3.96805ZM10.5917 11.228C9.90995 11.8001 8.90844 11.7267 8.34922 11.0602C7.82856 10.4397 7.86434 9.66559 8.42276 8.96205C8.88939 8.37469 9.26527 7.64808 9.34926 6.93143C9.37295 6.74185 9.58771 6.63997 9.73726 6.75598C10.1532 7.07274 10.5398 7.44018 10.8837 7.85001C11.7392 8.86181 11.6067 10.3763 10.5917 11.228Z" fill="#FF7200"/>
</g>
<defs>
<clipPath id="clip0_4103_2497">
<rect width="12" height="12" fill="white" transform="translate(0 7.71387) rotate(-40)"/>
</clipPath>
</defs>
</svg>
