<svg width="32" height="32" viewBox="0 0 32 32" fill="none" xmlns="http://www.w3.org/2000/svg">
<path d="M16.0001 2.66663C8.64008 2.66663 2.66675 8.63996 2.66675 16C2.66675 23.36 8.64008 29.3333 16.0001 29.3333C23.3601 29.3333 29.3334 23.36 29.3334 16C29.3334 8.63996 23.3601 2.66663 16.0001 2.66663ZM21.3334 17.3333H17.3334V21.3333C17.3334 22.0666 16.7334 22.6666 16.0001 22.6666C15.2667 22.6666 14.6667 22.0666 14.6667 21.3333V17.3333H10.6667C9.93341 17.3333 9.33342 16.7333 9.33342 16C9.33342 15.2666 9.93341 14.6666 10.6667 14.6666H14.6667V10.6666C14.6667 9.93329 15.2667 9.33329 16.0001 9.33329C16.7334 9.33329 17.3334 9.93329 17.3334 10.6666V14.6666H21.3334C22.0667 14.6666 22.6667 15.2666 22.6667 16C22.6667 16.7333 22.0667 17.3333 21.3334 17.3333Z" fill="#FF7200"/>
</svg>
