<svg width="25" height="24" viewBox="0 0 25 24" fill="none" xmlns="http://www.w3.org/2000/svg">
<rect x="0.5" width="24" height="24" rx="12" fill="#FF7200"/>
<path d="M7.16667 12.6667C7.53333 12.6667 7.83333 12.3667 7.83333 12.0001C7.83333 11.6334 7.53333 11.3334 7.16667 11.3334C6.8 11.3334 6.5 11.6334 6.5 12.0001C6.5 12.3667 6.8 12.6667 7.16667 12.6667ZM7.16667 15.3334C7.53333 15.3334 7.83333 15.0334 7.83333 14.6667C7.83333 14.3001 7.53333 14.0001 7.16667 14.0001C6.8 14.0001 6.5 14.3001 6.5 14.6667C6.5 15.0334 6.8 15.3334 7.16667 15.3334ZM7.16667 10.0001C7.53333 10.0001 7.83333 9.70008 7.83333 9.33341C7.83333 8.96675 7.53333 8.66675 7.16667 8.66675C6.8 8.66675 6.5 8.96675 6.5 9.33341C6.5 9.70008 6.8 10.0001 7.16667 10.0001ZM9.83333 12.6667H17.8333C18.2 12.6667 18.5 12.3667 18.5 12.0001C18.5 11.6334 18.2 11.3334 17.8333 11.3334H9.83333C9.46667 11.3334 9.16667 11.6334 9.16667 12.0001C9.16667 12.3667 9.46667 12.6667 9.83333 12.6667ZM9.83333 15.3334H17.8333C18.2 15.3334 18.5 15.0334 18.5 14.6667C18.5 14.3001 18.2 14.0001 17.8333 14.0001H9.83333C9.46667 14.0001 9.16667 14.3001 9.16667 14.6667C9.16667 15.0334 9.46667 15.3334 9.83333 15.3334ZM9.16667 9.33341C9.16667 9.70008 9.46667 10.0001 9.83333 10.0001H17.8333C18.2 10.0001 18.5 9.70008 18.5 9.33341C18.5 8.96675 18.2 8.66675 17.8333 8.66675H9.83333C9.46667 8.66675 9.16667 8.96675 9.16667 9.33341ZM7.16667 12.6667C7.53333 12.6667 7.83333 12.3667 7.83333 12.0001C7.83333 11.6334 7.53333 11.3334 7.16667 11.3334C6.8 11.3334 6.5 11.6334 6.5 12.0001C6.5 12.3667 6.8 12.6667 7.16667 12.6667ZM7.16667 15.3334C7.53333 15.3334 7.83333 15.0334 7.83333 14.6667C7.83333 14.3001 7.53333 14.0001 7.16667 14.0001C6.8 14.0001 6.5 14.3001 6.5 14.6667C6.5 15.0334 6.8 15.3334 7.16667 15.3334ZM7.16667 10.0001C7.53333 10.0001 7.83333 9.70008 7.83333 9.33341C7.83333 8.96675 7.53333 8.66675 7.16667 8.66675C6.8 8.66675 6.5 8.96675 6.5 9.33341C6.5 9.70008 6.8 10.0001 7.16667 10.0001ZM9.83333 12.6667H17.8333C18.2 12.6667 18.5 12.3667 18.5 12.0001C18.5 11.6334 18.2 11.3334 17.8333 11.3334H9.83333C9.46667 11.3334 9.16667 11.6334 9.16667 12.0001C9.16667 12.3667 9.46667 12.6667 9.83333 12.6667ZM9.83333 15.3334H17.8333C18.2 15.3334 18.5 15.0334 18.5 14.6667C18.5 14.3001 18.2 14.0001 17.8333 14.0001H9.83333C9.46667 14.0001 9.16667 14.3001 9.16667 14.6667C9.16667 15.0334 9.46667 15.3334 9.83333 15.3334ZM9.16667 9.33341C9.16667 9.70008 9.46667 10.0001 9.83333 10.0001H17.8333C18.2 10.0001 18.5 9.70008 18.5 9.33341C18.5 8.96675 18.2 8.66675 17.8333 8.66675H9.83333C9.46667 8.66675 9.16667 8.96675 9.16667 9.33341Z" fill="white"/>
</svg>
