<svg width="16" height="17" viewBox="0 0 16 17" fill="none" xmlns="http://www.w3.org/2000/svg">
<path d="M12.82 10.6734L11.1267 10.48C10.72 10.4334 10.32 10.5734 10.0334 10.86L8.80669 12.0867C6.92003 11.1267 5.37336 9.58671 4.41336 7.69338L5.64669 6.46005C5.93336 6.17338 6.07336 5.77338 6.02669 5.36671L5.83336 3.68671C5.75336 3.01338 5.18669 2.50671 4.50669 2.50671H3.35336C2.60003 2.50671 1.97336 3.13338 2.02003 3.88671C2.37336 9.58005 6.92669 14.1267 12.6134 14.48C13.3667 14.5267 13.9934 13.9 13.9934 13.1467V11.9934C14 11.32 13.4934 10.7534 12.82 10.6734Z" fill="#1F2124"/>
</svg>
