<svg width="32" height="32" viewBox="0 0 32 32" fill="none" xmlns="http://www.w3.org/2000/svg">
<path d="M7.33317 28C8.43984 28 9.33317 27.1067 9.33317 26V24H22.6665V26C22.6665 27.1067 23.5598 28 24.6665 28C25.7732 28 26.6665 27.1067 26.6665 26V22.6667C26.6665 21.2 25.4665 20 23.9998 20H7.99984C6.53317 20 5.33317 21.2 5.33317 22.6667V26C5.33317 27.1067 6.2265 28 7.33317 28ZM26.6665 13.3333H27.9998C28.7332 13.3333 29.3332 13.9333 29.3332 14.6667V16C29.3332 16.7333 28.7332 17.3333 27.9998 17.3333H26.6665C25.9332 17.3333 25.3332 16.7333 25.3332 16V14.6667C25.3332 13.9333 25.9332 13.3333 26.6665 13.3333ZM3.99984 13.3333H5.33317C6.0665 13.3333 6.6665 13.9333 6.6665 14.6667V16C6.6665 16.7333 6.0665 17.3333 5.33317 17.3333H3.99984C3.2665 17.3333 2.6665 16.7333 2.6665 16V14.6667C2.6665 13.9333 3.2665 13.3333 3.99984 13.3333ZM22.6665 17.3333H9.33317V6.66667C9.33317 5.2 10.5332 4 11.9998 4H19.9998C21.4665 4 22.6665 5.2 22.6665 6.66667V17.3333Z" fill="#FF7200"/>
</svg>
