<svg width="26" height="26" viewBox="0 0 26 26" fill="none" xmlns="http://www.w3.org/2000/svg">
<path d="M8.99984 5.8006V8.20058C8.99984 8.6424 8.64167 9.00057 8.19984 9.00057H5.79987C5.35805 9.00057 4.99988 8.6424 4.99988 8.20058V5.8006C4.99988 5.35878 5.35805 5.00061 5.79987 5.00061H8.19984C8.64167 5.00061 8.99984 5.35878 8.99984 5.8006Z" stroke="white" stroke-width="2" stroke-linecap="round" stroke-linejoin="round"/>
<path d="M4.99988 13.0002H8.99984" stroke="white" stroke-width="2" stroke-linecap="round" stroke-linejoin="round"/>
<path d="M16.9998 13.0002V17.0002" stroke="white" stroke-width="2" stroke-linecap="round" stroke-linejoin="round"/>
<path d="M12.9999 20.9999H16.9998" stroke="white" stroke-width="2" stroke-linecap="round" stroke-linejoin="round"/>
<path d="M12.9999 13.015L13.0132 13.0002" stroke="white" stroke-width="2" stroke-linecap="round" stroke-linejoin="round"/>
<path d="M20.9999 13.015L21.0132 13.0002" stroke="white" stroke-width="2" stroke-linecap="round" stroke-linejoin="round"/>
<path d="M12.9999 17.0153L13.0132 17.0005" stroke="white" stroke-width="2" stroke-linecap="round" stroke-linejoin="round"/>
<path d="M20.9999 17.0153L21.0132 17.0005" stroke="white" stroke-width="2" stroke-linecap="round" stroke-linejoin="round"/>
<path d="M20.9999 21.0147L21.0132 20.9999" stroke="white" stroke-width="2" stroke-linecap="round" stroke-linejoin="round"/>
<path d="M12.9999 9.01481L13.0132 9" stroke="white" stroke-width="2" stroke-linecap="round" stroke-linejoin="round"/>
<path d="M12.9999 5.01542L13.0132 5.00061" stroke="white" stroke-width="2" stroke-linecap="round" stroke-linejoin="round"/>
<path d="M8.99984 17.8005V20.2005C8.99984 20.6423 8.64167 21.0004 8.19984 21.0004H5.79987C5.35805 21.0004 4.99988 20.6423 4.99988 20.2005V17.8005C4.99988 17.3586 5.35805 17.0005 5.79987 17.0005H8.19984C8.64167 17.0005 8.99984 17.3586 8.99984 17.8005Z" stroke="white" stroke-width="2" stroke-linecap="round" stroke-linejoin="round"/>
<path d="M20.9997 5.8006V8.20058C20.9997 8.6424 20.6416 9.00057 20.1997 9.00057H17.7997C17.3579 9.00057 16.9998 8.6424 16.9998 8.20058V5.8006C16.9998 5.35878 17.3579 5.00061 17.7997 5.00061H20.1997C20.6416 5.00061 20.9997 5.35878 20.9997 5.8006Z" stroke="white" stroke-width="2" stroke-linecap="round" stroke-linejoin="round"/>
<path d="M20.9999 1.00037H24.9998V5.00033" stroke="white" stroke-width="2" stroke-linecap="round" stroke-linejoin="round"/>
<path d="M20.9999 24.9998H24.9998V20.9999" stroke="white" stroke-width="2" stroke-linecap="round" stroke-linejoin="round"/>
<path d="M4.99996 1.00037H1V5.00033" stroke="white" stroke-width="2" stroke-linecap="round" stroke-linejoin="round"/>
<path d="M4.99996 24.9998H1V20.9999" stroke="white" stroke-width="2" stroke-linecap="round" stroke-linejoin="round"/>
</svg>
