<svg width="24" height="24" viewBox="0 0 24 24" fill="none" xmlns="http://www.w3.org/2000/svg">
<path d="M13.0001 3.8699V3.8899C13.0001 4.5599 13.4501 5.1199 14.0801 5.3199C16.9301 6.2099 19.0001 8.8599 19.0001 11.9999C19.0001 12.5199 18.9401 13.0099 18.8301 13.4899C18.6901 14.1299 18.9501 14.7899 19.5201 15.1299L19.5301 15.1399C20.3901 15.6399 21.5101 15.1899 21.7401 14.2299C21.9101 13.5099 22.0001 12.7599 22.0001 11.9999C22.0001 7.4999 19.0201 3.6799 14.9201 2.4299C13.9701 2.1399 13.0001 2.8699 13.0001 3.8699ZM10.9401 18.9199C7.9501 18.4899 5.5201 16.0599 5.0801 13.0799C4.5401 9.4799 6.7401 6.3099 9.9101 5.3199C10.5501 5.1299 11.0001 4.5599 11.0001 3.8899V3.8699C11.0001 2.8699 10.0301 2.1399 9.0701 2.4299C4.5601 3.8099 1.4101 8.28991 2.0901 13.3899C2.6801 17.7699 6.2201 21.3099 10.6001 21.8999C13.7401 22.3199 16.6401 21.2899 18.7301 19.3699C19.4701 18.6899 19.3401 17.4799 18.4701 16.9799C17.8901 16.6399 17.1701 16.7499 16.6701 17.1999C15.2001 18.5399 13.1601 19.2499 10.9401 18.9199Z" fill="#DDE0E4"/>
</svg>
