<svg width="32" height="32" viewBox="0 0 32 32" fill="none" xmlns="http://www.w3.org/2000/svg">
<path d="M15.9999 2.6665C8.63993 2.6665 2.6666 8.63984 2.6666 15.9998C2.6666 23.3598 8.63993 29.3332 15.9999 29.3332C23.3599 29.3332 29.3333 23.3598 29.3333 15.9998C29.3333 8.63984 23.3599 2.6665 15.9999 2.6665ZM12.3866 21.7198L7.59993 16.9332C7.07993 16.4132 7.07993 15.5732 7.59993 15.0532C8.11993 14.5332 8.95993 14.5332 9.47993 15.0532L13.3333 18.8932L22.5066 9.71984C23.0266 9.19984 23.8666 9.19984 24.3866 9.71984C24.9066 10.2398 24.9066 11.0798 24.3866 11.5998L14.2666 21.7198C13.7599 22.2398 12.9066 22.2398 12.3866 21.7198Z" fill="#16A679"/>
</svg>
