<svg width="32" height="32" viewBox="0 0 32 32" fill="none" xmlns="http://www.w3.org/2000/svg">
<path d="M16.0004 30.6667C17.4671 30.6667 18.6537 29.48 18.6537 28.0133H13.3471C13.3471 29.48 14.5337 30.6667 16.0004 30.6667ZM27.0537 24.3867L25.3337 22.6667V14.6667C25.3337 10.2 22.1871 6.46667 18.0004 5.56V4C18.0004 2.89333 17.1071 2 16.0004 2C14.8937 2 14.0004 2.89333 14.0004 4V5.56C9.81373 6.46667 6.66706 10.2 6.66706 14.6667V22.6667L4.94706 24.3867C4.10706 25.2267 4.69373 26.6667 5.88039 26.6667H26.1071C27.3071 26.6667 27.8937 25.2267 27.0537 24.3867ZM17.3337 21.3333H14.6671V18.6667H17.3337V21.3333ZM17.3337 14.6667C17.3337 15.4 16.7337 16 16.0004 16C15.2671 16 14.6671 15.4 14.6671 14.6667V12C14.6671 11.2667 15.2671 10.6667 16.0004 10.6667C16.7337 10.6667 17.3337 11.2667 17.3337 12V14.6667Z" fill="#C5280C"/>
</svg>
